<?xml version="1.0" encoding="UTF-8" standalone="no"?>
<!-- Created with Inkscape (http://www.inkscape.org/) -->
<svg
   xmlns:dc="http://purl.org/dc/elements/1.1/"
   xmlns:cc="http://web.resource.org/cc/"
   xmlns:rdf="http://www.w3.org/1999/02/22-rdf-syntax-ns#"
   xmlns:svg="http://www.w3.org/2000/svg"
   xmlns="http://www.w3.org/2000/svg"
   xmlns:xlink="http://www.w3.org/1999/xlink"
   xmlns:sodipodi="http://inkscape.sourceforge.net/DTD/sodipodi-0.dtd"
   xmlns:inkscape="http://www.inkscape.org/namespaces/inkscape"
   inkscape:export-ydpi="90.000000"
   inkscape:export-xdpi="90.000000"
   inkscape:export-filename="/home/swobodin/Arts/logo_20050719.png"
   sodipodi:docname="logo.svg"
   sodipodi:docbase="/home/swobodin/www/Other/chicken"
   inkscape:version="0.42"
   sodipodi:version="0.32"
   id="svg1796"
   height="1190.5512pt"
   width="841.88976pt">
  <defs
     id="defs3">
    <linearGradient
       id="linearGradient29186">
      <stop
         style="stop-color:#ffffff;stop-opacity:1.0000000;"
         offset="0.0000000"
         id="stop29187" />
      <stop
         style="stop-color:#ffffff;stop-opacity:0;"
         offset="1"
         id="stop29188" />
    </linearGradient>
    <linearGradient
       id="linearGradient26051">
      <stop
         style="stop-color:#ffffff;stop-opacity:0.44927537;"
         offset="0.0000000"
         id="stop26052" />
      <stop
         style="stop-color:#ffffff;stop-opacity:0;"
         offset="1"
         id="stop26053" />
    </linearGradient>
    <linearGradient
       id="linearGradient14625">
      <stop
         style="stop-color:#ffffff;stop-opacity:1.0000000;"
         offset="0.0000000"
         id="stop14626" />
      <stop
         style="stop-color:#ffffff;stop-opacity:0;"
         offset="1"
         id="stop14627" />
    </linearGradient>
    <linearGradient
       id="linearGradient17250">
      <stop
         style="stop-color:#dc0000;stop-opacity:1.0000000;"
         offset="0.0000000"
         id="stop17251" />
      <stop
         style="stop-color:#ffb200;stop-opacity:1.0000000;"
         offset="1.0000000"
         id="stop17252" />
    </linearGradient>
    <linearGradient
       id="linearGradient19763">
      <stop
         style="stop-color:#000000;stop-opacity:0.74117649;"
         offset="0.0000000"
         id="stop19764" />
      <stop
         style="stop-color:#ffffff;stop-opacity:0.0000000;"
         offset="1.0000000"
         id="stop19765" />
    </linearGradient>
    <linearGradient
       id="linearGradient5482">
      <stop
         id="stop5484"
         offset="0.0000000"
         style="stop-color:#00000c;stop-opacity:1.0000000;" />
      <stop
         id="stop5486"
         offset="1.0000000"
         style="stop-color:#5b718b;stop-opacity:1.0000000;" />
    </linearGradient>
    <linearGradient
       id="linearGradient5387">
      <stop
         id="stop5389"
         offset="0.0000000"
         style="stop-color:#ffffff;stop-opacity:1.0000000;" />
      <stop
         id="stop5391"
         offset="1.0000000"
         style="stop-color:#ffffff;stop-opacity:0.0000000;" />
    </linearGradient>
    <linearGradient
       id="linearGradient5379">
      <stop
         id="stop5381"
         offset="0.0000000"
         style="stop-color:#ffffff;stop-opacity:1.0000000;" />
      <stop
         id="stop5383"
         offset="1"
         style="stop-color:#7b91b3;stop-opacity:0;" />
    </linearGradient>
    <linearGradient
       id="linearGradient3559">
      <stop
         id="stop3561"
         offset="0"
         style="stop-color:#7b91b3;stop-opacity:1;" />
      <stop
         id="stop3563"
         offset="1"
         style="stop-color:#7b91b3;stop-opacity:0;" />
    </linearGradient>
    <linearGradient
       y2="643.37054"
       x2="-943.05023"
       y1="636.02576"
       x1="-571.70172"
       gradientTransform="scale(0.863407,1.158202)"
       gradientUnits="userSpaceOnUse"
       id="linearGradient5444"
       xlink:href="#linearGradient5387"
       inkscape:collect="always" />
    <linearGradient
       y2="274.89462"
       x2="-364.20172"
       y1="474.76480"
       x1="-364.20166"
       spreadMethod="reflect"
       gradientTransform="scale(1.740908,0.574413)"
       gradientUnits="userSpaceOnUse"
       id="linearGradient5502"
       xlink:href="#linearGradient5482"
       inkscape:collect="always" />
    <linearGradient
       y2="643.37054"
       x2="-943.05023"
       y1="636.02576"
       x1="-571.70172"
       gradientTransform="matrix(0.863407,0.000000,0.000000,1.158202,888.8329,-340.1610)"
       gradientUnits="userSpaceOnUse"
       id="linearGradient5515"
       xlink:href="#linearGradient5387"
       inkscape:collect="always" />
    <linearGradient
       y2="274.89462"
       x2="-364.20172"
       y1="474.76480"
       x1="-364.20166"
       spreadMethod="reflect"
       gradientTransform="scale(1.740908,0.574413)"
       gradientUnits="userSpaceOnUse"
       id="linearGradient5539"
       xlink:href="#linearGradient5482"
       inkscape:collect="always" />
    <linearGradient
       y2="643.37054"
       x2="-943.05023"
       y1="636.02576"
       x1="-571.70172"
       gradientTransform="matrix(0.863407,0.000000,0.000000,1.158202,888.8329,-340.1610)"
       gradientUnits="userSpaceOnUse"
       id="linearGradient5563"
       xlink:href="#linearGradient5387"
       inkscape:collect="always" />
    <linearGradient
       y2="274.89462"
       x2="-364.20172"
       y1="474.76480"
       x1="-364.20166"
       spreadMethod="reflect"
       gradientTransform="scale(1.740908,0.574413)"
       gradientUnits="userSpaceOnUse"
       id="linearGradient5565"
       xlink:href="#linearGradient5482"
       inkscape:collect="always" />
    <linearGradient
       y2="643.37054"
       x2="-943.05023"
       y1="636.02576"
       x1="-571.70172"
       gradientTransform="matrix(0.863407,0.000000,0.000000,1.158202,888.8329,-340.1610)"
       gradientUnits="userSpaceOnUse"
       id="linearGradient5587"
       xlink:href="#linearGradient5387"
       inkscape:collect="always" />
    <linearGradient
       y2="643.37054"
       x2="-943.05023"
       y1="636.02576"
       x1="-571.70172"
       gradientTransform="matrix(0.863407,0.000000,0.000000,1.158202,1074.547,-385.8753)"
       gradientUnits="userSpaceOnUse"
       id="linearGradient5591"
       xlink:href="#linearGradient5387"
       inkscape:collect="always" />
    <linearGradient
       y2="274.89462"
       x2="-364.20172"
       y1="474.76480"
       x1="-364.20166"
       spreadMethod="reflect"
       gradientTransform="scale(1.740908,0.574413)"
       gradientUnits="userSpaceOnUse"
       id="linearGradient5602"
       xlink:href="#linearGradient5482"
       inkscape:collect="always" />
    <linearGradient
       y2="643.37054"
       x2="-943.05023"
       y1="636.02576"
       x1="-571.70172"
       gradientTransform="matrix(0.863407,0.000000,0.000000,1.158202,1074.547,-385.8753)"
       gradientUnits="userSpaceOnUse"
       id="linearGradient5639"
       xlink:href="#linearGradient5387"
       inkscape:collect="always" />
    <linearGradient
       y2="274.89462"
       x2="-364.20172"
       y1="474.76480"
       x1="-364.20166"
       spreadMethod="reflect"
       gradientTransform="scale(1.740908,0.574413)"
       gradientUnits="userSpaceOnUse"
       id="linearGradient5641"
       xlink:href="#linearGradient5482"
       inkscape:collect="always" />
    <linearGradient
       inkscape:collect="always"
       xlink:href="#linearGradient5387"
       id="linearGradient1367"
       gradientUnits="userSpaceOnUse"
       gradientTransform="scale(0.863407,1.158202)"
       x1="625.68604"
       y1="542.01453"
       x2="308.08505"
       y2="534.66968"
       spreadMethod="reflect" />
    <linearGradient
       inkscape:collect="always"
       xlink:href="#linearGradient5387"
       id="linearGradient2159"
       gradientUnits="userSpaceOnUse"
       gradientTransform="scale(0.863407,1.158202)"
       spreadMethod="reflect"
       x1="625.68604"
       y1="542.01453"
       x2="308.08505"
       y2="534.66968" />
    <radialGradient
       r="278.17526"
       fy="713.41718"
       fx="130.33456"
       cy="713.41718"
       cx="130.33456"
       gradientTransform="matrix(0.772204,0.000000,0.000000,0.663914,1095.376,566.6656)"
       gradientUnits="userSpaceOnUse"
       id="radialGradient2351"
       xlink:href="#linearGradient19763"
       inkscape:collect="always" />
    <linearGradient
       y2="299.88538"
       x2="-953.87994"
       y1="448.68289"
       x1="-1006.6100"
       gradientTransform="matrix(0.939411,0.000000,0.000000,1.446184,2064.597,85.02150)"
       gradientUnits="userSpaceOnUse"
       id="linearGradient2369"
       xlink:href="#linearGradient17250"
       inkscape:collect="always" />
    <linearGradient
       y2="272.82257"
       x2="-1335.0436"
       y1="330.19891"
       x1="-1308.2009"
       gradientTransform="matrix(0.701579,0.000000,0.000000,1.936430,2064.597,85.02150)"
       gradientUnits="userSpaceOnUse"
       id="linearGradient2371"
       xlink:href="#linearGradient17250"
       inkscape:collect="always" />
    <linearGradient
       y2="376.90421"
       x2="239.46423"
       y1="244.04800"
       x1="110.44791"
       gradientTransform="matrix(0.601918,0.000000,0.000000,1.661356,963.1844,118.9247)"
       gradientUnits="userSpaceOnUse"
       id="linearGradient2373"
       xlink:href="#linearGradient14625"
       inkscape:collect="always" />
    <linearGradient
       y2="232.90141"
       x2="502.45129"
       y1="232.90141"
       x1="468.40564"
       gradientTransform="matrix(0.606945,0.000000,0.000000,1.647595,939.4808,150.0781)"
       gradientUnits="userSpaceOnUse"
       id="linearGradient2375"
       xlink:href="#linearGradient26051"
       inkscape:collect="always" />
    <linearGradient
       y2="500.80176"
       x2="323.10443"
       y1="256.78357"
       x1="9.6549549"
       gradientTransform="matrix(0.805965,0.000000,0.000000,1.240749,957.0892,136.5331)"
       gradientUnits="userSpaceOnUse"
       id="linearGradient2377"
       xlink:href="#linearGradient29186"
       inkscape:collect="always" />
    <linearGradient
       y2="362.15622"
       x2="-857.95917"
       y1="438.47348"
       x1="-916.89685"
       gradientTransform="matrix(0.926747,0.000000,0.000000,1.465945,2064.597,85.02150)"
       gradientUnits="userSpaceOnUse"
       id="linearGradient2379"
       xlink:href="#linearGradient17250"
       inkscape:collect="always" />
    <linearGradient
       y2="485.78278"
       x2="317.13544"
       y1="384.39618"
       x1="501.40482"
       gradientTransform="matrix(0.795100,0.000000,0.000000,1.257703,963.1844,121.6337)"
       gradientUnits="userSpaceOnUse"
       id="linearGradient2381"
       xlink:href="#linearGradient14625"
       inkscape:collect="always" />
    <linearGradient
       y2="294.86530"
       x2="572.40991"
       y1="294.86530"
       x1="533.78339"
       gradientTransform="matrix(0.602527,0.000000,0.000000,1.659677,939.4808,148.0463)"
       gradientUnits="userSpaceOnUse"
       id="linearGradient2383"
       xlink:href="#linearGradient26051"
       inkscape:collect="always" />
    <linearGradient
       y2="306.75836"
       x2="-1102.7280"
       y1="404.58243"
       x1="-1131.0251"
       gradientTransform="matrix(0.796212,0.000000,0.000000,1.706280,2064.597,85.02150)"
       gradientUnits="userSpaceOnUse"
       id="linearGradient2385"
       xlink:href="#linearGradient17250"
       inkscape:collect="always" />
    <linearGradient
       y2="179.97382"
       x2="390.31766"
       y1="179.97382"
       x1="349.43204"
       gradientTransform="matrix(0.544121,0.000000,0.000000,1.837828,939.4808,150.0781)"
       gradientUnits="userSpaceOnUse"
       id="linearGradient2387"
       xlink:href="#linearGradient26051"
       inkscape:collect="always" />
    <linearGradient
       y2="403.09412"
       x2="342.54471"
       y1="246.21246"
       x1="198.88322"
       gradientTransform="matrix(0.683108,0.000000,0.000000,1.463898,961.8299,116.8929)"
       gradientUnits="userSpaceOnUse"
       id="linearGradient2389"
       xlink:href="#linearGradient14625"
       inkscape:collect="always" />
    <linearGradient
       inkscape:collect="always"
       xlink:href="#linearGradient5482"
       id="linearGradient2153"
       gradientUnits="userSpaceOnUse"
       gradientTransform="scale(1.740908,0.574413)"
       spreadMethod="reflect"
       x1="-364.20166"
       y1="474.76480"
       x2="-364.20172"
       y2="274.89462" />
    <linearGradient
       inkscape:collect="always"
       xlink:href="#linearGradient5482"
       id="linearGradient2164"
       gradientUnits="userSpaceOnUse"
       gradientTransform="matrix(1.740908,0.000000,0.000000,0.574413,14.16353,85.41664)"
       spreadMethod="reflect"
       x1="-364.20166"
       y1="474.76480"
       x2="-364.20172"
       y2="274.89462" />
  </defs>
  <sodipodi:namedview
     showgrid="false"
     inkscape:window-y="30"
     inkscape:window-x="0"
     inkscape:window-height="713"
     inkscape:window-width="1014"
     inkscape:current-layer="layer1"
     inkscape:document-units="px"
     inkscape:cy="696.64074"
     inkscape:cx="711.96445"
     inkscape:zoom="0.49497475"
     inkscape:pageshadow="2"
     inkscape:pageopacity="0.0"
     borderopacity="1.0"
     bordercolor="#666666"
     pagecolor="#ffffff"
     id="base" />
  <metadata
     id="metadata4">
    <rdf:RDF>
      <cc:Work
         rdf:about="">
        <dc:format>image/svg+xml</dc:format>
        <dc:type
           rdf:resource="http://purl.org/dc/dcmitype/StillImage" />
      </cc:Work>
    </rdf:RDF>
  </metadata>
  <g
     id="layer1"
     inkscape:groupmode="layer"
     inkscape:label="Layer 1">
    <g
       id="g2170"
       inkscape:export-filename="/home/swobodin/www/Other/chicken/logo.png"
       inkscape:export-xdpi="90.000000"
       inkscape:export-ydpi="90.000000">
      <g
         id="g2161">
        <g
           id="g5402"
           transform="translate(828.7675,119.3661)">
          <rect
             style="fill:#7b91b3;fill-opacity:1.0000000;fill-rule:nonzero;stroke:none;stroke-width:1.6993320;stroke-miterlimit:4.0000000;stroke-opacity:1.0000000"
             id="rect2668"
             width="497.81195"
             height="91.162109"
             x="-551.17511"
             y="858.87012"
             rx="10.000000"
             ry="10.000000" />
          <rect
             style="fill:#7b91b3;fill-opacity:1.0000000;fill-rule:nonzero;stroke:none;stroke-width:1.5453519;stroke-miterlimit:4.0000000;stroke-opacity:1.0000000"
             id="rect3428"
             width="413.58817"
             height="82.172501"
             x="-509.09314"
             y="771.68201"
             rx="10.000000"
             ry="10.000000" />
          <path
             style="fill:#7b91b3;fill-opacity:1.0000000;fill-rule:nonzero;stroke:none;stroke-width:2.7000000;stroke-miterlimit:4.0000000;stroke-opacity:1.0000000"
             d="M -300.28766,672.61093 L -462.26592,673.26718 L -488.00000,761.20468 C -486.68575,764.17595 -484.35294,766.26716 -481.54183,766.26718 L -301.71234,766.26718 L -301.71234,766.51718 L -120.45815,766.51718 C -117.64725,766.51718 -115.31426,764.42595 -114.00000,761.45468 L -136.76450,673.51718 L -300.28766,672.86093 L -300.28766,672.61093 z "
             id="rect3430"
             sodipodi:nodetypes="ccccccccccc" />
          <rect
             style="fill:#7b91b3;fill-opacity:1.0000000;fill-rule:nonzero;stroke:none;stroke-width:2.7000000;stroke-miterlimit:4.0000000;stroke-opacity:1.0000000"
             id="rect3505"
             width="313.00000"
             height="160.64795"
             x="-457.03214"
             y="506.37421"
             rx="10.000000"
             ry="10.000001" />
          <path
             style="fill:#7b91b3;fill-opacity:1.0000000;fill-rule:nonzero;stroke:none;stroke-width:2.7000000;stroke-miterlimit:4.0000000;stroke-opacity:1.0000000"
             d="M -301.18494,502.28575 L -455.82221,501.82452 L -480.39000,440.01953 C -479.13532,437.93124 -476.90823,436.46147 -474.22452,436.46146 L -302.54506,436.46146 L -302.54506,436.28575 L -129.50546,436.28575 C -126.82195,436.28575 -124.59469,437.75553 -123.34000,439.84382 L -145.07279,501.64882 L -301.18494,502.11004 L -301.18494,502.28575 z "
             id="path3507"
             sodipodi:nodetypes="ccccccccccc" />
          <path
             style="fill:#7b91b3;fill-opacity:1.0000000;fill-rule:nonzero;stroke:none;stroke-width:2.7000000;stroke-miterlimit:4.0000000;stroke-opacity:1.0000000"
             d="M -492.63626,282.26361 C -497.64079,282.26361 -501.67000,287.40127 -501.67000,293.78329 L -501.67000,418.19264 C -501.67000,424.57441 -497.64079,429.71223 -492.63626,429.71223 L -108.70375,429.71223 C -103.69908,429.71223 -99.670000,424.57441 -99.670000,418.19264 L -99.670000,293.78329 C -99.670000,287.40127 -103.69908,282.26361 -108.70375,282.26361 L -139.70054,282.26361 L -139.70054,326.03716 C -139.70054,332.41957 -143.72974,337.55701 -148.73410,337.55701 L -235.68359,337.55701 C -240.68849,337.55701 -244.71733,332.41957 -244.71733,326.03716 L -244.71733,282.26361 L -357.94953,282.26361 L -357.94953,326.03716 C -357.94953,332.41957 -361.97827,337.55701 -366.98320,337.55701 L -453.93251,337.55701 C -458.93713,337.55701 -462.96634,332.41957 -462.96634,326.03716 L -462.96634,282.26361 L -492.63626,282.26361 z "
             id="rect3509"
             sodipodi:nodetypes="ccccccccccccccccccccc" />
          <path
             style="opacity:0.81516588;fill:none;fill-opacity:1.0000000;fill-rule:nonzero;stroke:#000000;stroke-width:0.0000000;stroke-miterlimit:4.0000000;stroke-opacity:1.0000000"
             d="M -493.59946,284.09724 C -498.60399,284.09734 -502.63071,289.24654 -502.63071,295.62854 L -502.63071,420.03486 C -502.63070,426.41656 -498.60399,431.56606 -493.59946,431.56606 L -109.69321,431.56606 C -104.68854,431.56606 -100.63071,426.41666 -100.63071,420.03486 L -100.63071,295.62854 C -100.63071,289.24654 -104.68854,284.09724 -109.69321,284.09724 L -140.66196,284.09724 L -140.66196,327.87854 C -140.66196,334.26094 -144.68885,339.40984 -149.69321,339.40984 L -236.66196,339.40984 C -241.66686,339.40974 -245.69321,334.26094 -245.69321,327.87854 L -245.69321,284.09724 L -358.91196,284.09724 L -358.91196,327.87854 C -358.91197,334.26094 -362.93828,339.40984 -367.94321,339.40984 L -454.91196,339.40984 C -459.91659,339.40974 -463.94321,334.26094 -463.94321,327.87854 L -463.94321,284.09724 L -493.59946,284.09724 z M -303.50571,438.12856 L -303.50571,438.31606 L -475.19321,438.31606 C -477.87692,438.31606 -480.09477,439.75896 -481.34946,441.84726 L -456.78696,503.65986 L -302.16196,504.12856 L -302.16196,503.94106 L -146.03696,503.50356 L -124.31821,441.69106 C -125.57290,439.60276 -127.79095,438.12856 -130.47446,438.12856 L -303.50571,438.12856 z M -448.00571,508.22226 C -453.54571,508.22226 -458.00571,512.68236 -458.00571,518.22226 L -458.00571,658.87856 C -458.00571,664.41856 -453.54571,668.87856 -448.00571,668.87856 L -155.00571,668.87856 C -149.46571,668.87856 -145.00571,664.41856 -145.00571,658.87856 L -145.00571,518.22226 C -145.00571,512.68226 -149.46571,508.22226 -155.00571,508.22226 L -448.00571,508.22226 z M -301.25571,674.44106 L -463.25571,675.09726 L -488.97446,763.03486 C -487.66021,766.00606 -485.31682,768.09736 -482.50571,768.09726 L -302.69321,768.09726 L -302.69321,768.34726 L -121.44321,768.34726 C -118.63231,768.34726 -116.28872,766.25606 -114.97446,763.28486 L -137.72446,675.34726 L -301.25571,674.69106 L -301.25571,674.44106 z M -500.06821,773.53486 C -505.60821,773.53486 -510.06821,777.99486 -510.06821,783.53486 L -510.06821,845.69106 C -510.06821,851.23106 -505.60821,855.69106 -500.06821,855.69106 L -106.47446,855.69106 C -100.93446,855.69106 -96.474460,851.23106 -96.474460,845.69106 L -96.474460,783.53486 C -96.474460,777.99486 -100.93446,773.53486 -106.47446,773.53486 L -500.06821,773.53486 z M -542.16196,860.72226 C -547.70196,860.72226 -552.16196,865.18236 -552.16196,870.72226 L -552.16196,941.87856 C -552.16196,947.41856 -547.70196,951.87856 -542.16196,951.87856 L -64.349460,951.87856 C -58.809460,951.87856 -54.349460,947.41856 -54.349460,941.87856 L -54.349460,870.72226 C -54.349460,865.18236 -58.809460,860.72226 -64.349460,860.72226 L -542.16196,860.72226 z "
             id="path5395" />
        </g>
        <path
           style="opacity:0.094786711;fill:#000000;fill-opacity:1.0000000;fill-rule:nonzero;stroke:#000000;stroke-width:1.7620611;stroke-miterlimit:4.0000000;stroke-opacity:1.0000000"
           d="M 333.19058,398.34167 C 327.90058,398.34177 323.64415,403.57936 323.64415,410.07094 L 323.64415,536.61300 C 323.64416,543.10425 327.90058,548.34216 333.19058,548.34216 L 738.99623,548.34216 C 744.28639,548.34216 748.57569,543.10436 748.57569,536.61300 L 748.57569,410.07094 C 748.57569,403.57936 744.28639,398.34167 738.99623,398.34167 L 706.26092,398.34167 L 706.26092,442.87459 C 706.26092,449.36657 702.00431,454.60386 696.71449,454.60386 L 604.78473,454.60386 C 599.49433,454.60376 595.23830,449.36657 595.23830,442.87459 L 595.23830,398.34167 L 475.56114,398.34167 L 475.56114,442.87459 C 475.56113,449.36657 471.30514,454.60386 466.01472,454.60386 L 374.08495,454.60386 C 368.79484,454.60376 364.53853,449.36657 364.53853,442.87459 L 364.53853,398.34167 L 333.19058,398.34167 z M 534.12797,555.01732 L 534.12797,555.20804 L 352.64679,555.20804 C 349.81000,555.20804 347.46563,556.67572 346.13936,558.79987 L 372.10299,621.67364 L 535.54836,622.15039 L 535.54836,621.95967 L 700.57931,621.51466 L 723.53697,558.64099 C 722.21071,556.51684 719.86613,555.01732 717.02955,555.01732 L 534.12797,555.01732 z M 381.38516,626.31437 C 375.52914,626.31437 370.81473,630.85103 370.81473,636.48603 L 370.81473,779.55706 C 370.81473,785.19217 375.52914,789.72870 381.38516,789.72870 L 691.09894,789.72870 C 696.95497,789.72870 701.66939,785.19217 701.66939,779.55706 L 701.66939,636.48603 C 701.66939,630.85093 696.95497,626.31437 691.09894,626.31437 L 381.38516,626.31437 z M 536.50631,795.38669 L 365.26525,796.05416 L 338.07941,885.50157 C 339.46863,888.52367 341.94569,890.65097 344.91715,890.65087 L 534.98681,890.65087 L 534.98681,890.90507 L 726.57597,890.90507 C 729.54722,890.90507 732.02449,888.77797 733.41372,885.75577 L 709.36598,796.30846 L 536.50631,795.64099 L 536.50631,795.38669 z M 326.35283,896.18187 C 320.49681,896.18187 315.78239,900.71817 315.78239,906.35347 L 315.78239,969.57667 C 315.78239,975.21177 320.49681,979.74837 326.35283,979.74837 L 742.39860,979.74837 C 748.25461,979.74837 752.96902,975.21177 752.96902,969.57667 L 752.96902,906.35347 C 752.96902,900.71817 748.25461,896.18187 742.39860,896.18187 L 326.35283,896.18187 z M 281.85790,984.86587 C 276.00188,984.86587 271.28747,989.40267 271.28747,995.03757 L 271.28747,1067.4155 C 271.28747,1073.0507 276.00188,1077.5872 281.85790,1077.5872 L 786.92654,1077.5872 C 792.78257,1077.5872 797.49698,1073.0507 797.49698,1067.4155 L 797.49698,995.03757 C 797.49698,989.40267 792.78257,984.86587 786.92654,984.86587 L 281.85790,984.86587 z "
           id="path5415" />
        <path
           style="fill:url(#linearGradient2159);fill-opacity:1.0000000;fill-rule:nonzero;stroke:none;stroke-width:1.6993320;stroke-miterlimit:4.0000000;stroke-opacity:1.0000000"
           d="M 333.00304,398.07960 C 327.99851,398.07970 323.97179,403.22890 323.97179,409.61092 L 323.97179,534.01722 C 323.97180,540.39892 327.99851,545.54842 333.00304,545.54842 L 716.90929,545.54842 C 721.91396,545.54842 725.97179,540.39902 725.97179,534.01722 L 725.97179,409.61092 C 725.97179,403.22890 721.91396,398.07960 716.90929,398.07960 L 685.94054,398.07960 L 685.94054,441.86092 C 685.94054,448.24332 681.91365,453.39222 676.90929,453.39222 L 589.94054,453.39222 C 584.93564,453.39212 580.90929,448.24332 580.90929,441.86092 L 580.90929,398.07960 L 467.69054,398.07960 L 467.69054,441.86092 C 467.69053,448.24332 463.66422,453.39222 458.65929,453.39222 L 371.69054,453.39222 C 366.68591,453.39212 362.65929,448.24332 362.65929,441.86092 L 362.65929,398.07960 L 333.00304,398.07960 z M 523.09679,552.11092 L 523.09679,552.29842 L 351.40929,552.29842 C 348.72558,552.29842 346.50773,553.74132 345.25304,555.82962 L 369.81554,617.64222 L 524.44054,618.11092 L 524.44054,617.92342 L 680.56554,617.48592 L 702.28429,555.67342 C 701.02960,553.58512 698.81155,552.11092 696.12804,552.11092 L 523.09679,552.11092 z M 378.59679,622.20462 C 373.05679,622.20462 368.59679,626.66472 368.59679,632.20462 L 368.59679,772.86092 C 368.59679,778.40092 373.05679,782.86092 378.59679,782.86092 L 671.59679,782.86092 C 677.13679,782.86092 681.59679,778.40092 681.59679,772.86092 L 681.59679,632.20462 C 681.59679,626.66462 677.13679,622.20462 671.59679,622.20462 L 378.59679,622.20462 z M 525.34679,788.42342 L 363.34679,789.07962 L 337.62804,877.01727 C 338.94229,879.98847 341.28568,882.07977 344.09679,882.07967 L 523.90929,882.07967 L 523.90929,882.32967 L 705.15929,882.32967 C 707.97019,882.32967 710.31378,880.23847 711.62804,877.26727 L 688.87804,789.32962 L 525.34679,788.67342 L 525.34679,788.42342 z M 326.53429,887.51727 C 320.99429,887.51727 316.53429,891.97727 316.53429,897.51727 L 316.53429,959.67347 C 316.53429,965.21347 320.99429,969.67347 326.53429,969.67347 L 720.12804,969.67347 C 725.66804,969.67347 730.12804,965.21347 730.12804,959.67347 L 730.12804,897.51727 C 730.12804,891.97727 725.66804,887.51727 720.12804,887.51727 L 326.53429,887.51727 z M 284.44054,974.70470 C 278.90054,974.70470 274.44054,979.16480 274.44054,984.70470 L 274.44054,1055.8610 C 274.44054,1061.4010 278.90054,1065.8610 284.44054,1065.8610 L 762.25304,1065.8610 C 767.79304,1065.8610 772.25304,1061.4010 772.25304,1055.8610 L 772.25304,984.70470 C 772.25304,979.16480 767.79304,974.70470 762.25304,974.70470 L 284.44054,974.70470 z "
           id="rect3546" />
        <path
           style="fill:none;fill-opacity:1.0000000;fill-rule:nonzero;stroke:#000000;stroke-width:2.3250000;stroke-linejoin:round;stroke-miterlimit:6.2999997;stroke-opacity:1.0000000;marker-start:none;marker-mid:none"
           d="M 335.65151,401.16361 C 330.64698,401.16371 326.62026,406.31291 326.62026,412.69493 L 326.62026,537.10123 C 326.62027,543.48293 330.64698,548.63243 335.65151,548.63243 L 719.55777,548.63243 C 724.56244,548.63243 728.62027,543.48303 728.62027,537.10123 L 728.62027,412.69493 C 728.62027,406.31291 724.56244,401.16361 719.55777,401.16361 L 688.58902,401.16361 L 688.58902,444.94493 C 688.58902,451.32733 684.56213,456.47623 679.55777,456.47623 L 592.58902,456.47623 C 587.58412,456.47613 583.55777,451.32733 583.55777,444.94493 L 583.55777,401.16361 L 470.33901,401.16361 L 470.33901,444.94493 C 470.33900,451.32733 466.31269,456.47623 461.30776,456.47623 L 374.33901,456.47623 C 369.33438,456.47613 365.30776,451.32733 365.30776,444.94493 L 365.30776,401.16361 L 335.65151,401.16361 z M 525.74526,555.19493 L 525.74526,555.38243 L 354.05776,555.38243 C 351.37405,555.38243 349.15620,556.82533 347.90151,558.91363 L 372.46401,620.72623 L 527.08901,621.19493 L 527.08901,621.00743 L 683.21402,620.56993 L 704.93277,558.75743 C 703.67808,556.66913 701.46003,555.19493 698.77652,555.19493 L 525.74526,555.19493 z M 381.24526,625.28863 C 375.70526,625.28863 371.24526,629.74873 371.24526,635.28863 L 371.24526,775.94493 C 371.24526,781.48493 375.70526,785.94489 381.24526,785.94489 L 674.24527,785.94489 C 679.78527,785.94489 684.24527,781.48493 684.24527,775.94493 L 684.24527,635.28863 C 684.24527,629.74863 679.78527,625.28863 674.24527,625.28863 L 381.24526,625.28863 z M 527.99526,791.50739 L 365.99526,792.16359 L 340.27651,880.10127 C 341.59076,883.07247 343.93415,885.16377 346.74526,885.16367 L 526.55776,885.16367 L 526.55776,885.41367 L 707.80777,885.41367 C 710.61867,885.41367 712.96226,883.32247 714.27652,880.35127 L 691.52652,792.41359 L 527.99526,791.75739 L 527.99526,791.50739 z M 329.18276,890.60127 C 323.64276,890.60127 319.18276,895.06127 319.18276,900.60127 L 319.18276,962.75747 C 319.18276,968.29747 323.64276,972.75747 329.18276,972.75747 L 722.77652,972.75747 C 728.31652,972.75747 732.77651,968.29747 732.77651,962.75747 L 732.77651,900.60127 C 732.77651,895.06127 728.31652,890.60127 722.77652,890.60127 L 329.18276,890.60127 z M 287.08901,977.78867 C 281.54901,977.78867 277.08901,982.24877 277.08901,987.78867 L 277.08901,1058.9450 C 277.08901,1064.4850 281.54901,1068.9450 287.08901,1068.9450 L 764.90151,1068.9450 C 770.44151,1068.9450 774.90151,1064.4850 774.90151,1058.9450 L 774.90151,987.78867 C 774.90151,982.24877 770.44151,977.78867 764.90151,977.78867 L 287.08901,977.78867 z "
           id="path5411" />
      </g>
      <g
         id="g3169"
         transform="matrix(2.570977,0.000000,0.000000,2.246948,-2470.722,-649.3207)"
         style="opacity:0.25592414;fill:#000000;fill-opacity:1.0000000">
        <path
           d="M 1074.3945,665.51946 C 1093.7423,722.69646 1124.3522,753.01766 1179.2191,756.48296 C 1239.5726,775.83066 1295.5946,736.26886 1279.7121,674.18266 C 1272.4927,687.46616 1267.8724,694.68556 1255.4551,698.43956 C 1260.3643,664.07556 1228.8880,658.30016 1244.1930,621.33716 C 1254.8776,598.52416 1261.2306,570.51316 1242.4604,547.70011 C 1234.6635,573.68966 1225.1340,591.01606 1206.0750,610.07506 C 1208.0964,578.31006 1224.8452,552.60924 1214.7381,522.57686 C 1216.1820,502.36275 1182.9731,502.94030 1182.6843,441.14289 C 1161.6039,467.71001 1152.6520,488.21288 1155.8285,528.64109 C 1148.0316,561.27242 1128.9726,573.11216 1132.4379,608.34246 C 1129.5501,588.70586 1127.5287,571.66826 1131.5715,557.22961 C 1129.2614,539.32570 1126.9512,524.02072 1109.0473,511.31471 C 1114.5340,533.55023 1120.8870,567.04789 1102.1167,575.42226 C 1096.9188,586.10686 1070.9292,622.78106 1099.5177,680.24686 C 1091.1433,675.33776 1082.7689,673.89386 1074.3945,665.51946 z "
           id="path3171"
           style="fill-rule:evenodd;stroke:#ffff00;stroke-width:2.1563108;stroke-linecap:butt;stroke-linejoin:miter;stroke-miterlimit:4.0000000;stroke-opacity:0.50381678" />
        <path
           d="M 1173.1548,747.81976 C 1127.2399,699.30586 1119.4431,665.51946 1149.7642,633.46566 C 1183.8394,572.82336 1175.4650,534.70532 1150.6306,498.31994 C 1174.0212,578.88756 1122.9083,630.86666 1106.4483,654.25726 C 1096.6300,623.93616 1105.0044,610.94136 1118.5768,573.68966 C 1092.0096,602.56696 1075.8384,637.50846 1085.6566,670.71736 C 1103.5606,720.67506 1145.7214,731.64846 1173.1548,747.81976 z "
           id="path3173"
           style="fill-rule:evenodd;stroke:#ffff00;stroke-width:2.1563108;stroke-linecap:butt;stroke-linejoin:miter;stroke-miterlimit:4.0000000;stroke-opacity:0.50381678" />
        <path
           d="M 1228.8770,564.52175 C 1222.7222,546.62077 1227.7447,542.78716 1233.1362,534.96672 C 1238.6978,532.80059 1236.9932,525.24806 1240.0280,508.42827 C 1244.6232,527.20176 1256.9594,535.73776 1228.8770,564.52175 z "
           id="path3175"
           style="fill-rule:evenodd;stroke:#ffff00;stroke-width:2.1563108;stroke-linecap:butt;stroke-linejoin:miter;stroke-miterlimit:4.0000000;stroke-opacity:0.50381678" />
        <path
           d="M 1153.0907,498.23715 C 1153.7246,512.01490 1157.6418,525.65832 1155.8480,539.56546 C 1154.2657,572.03236 1140.0002,602.56416 1120.3061,627.97956 C 1116.6527,633.17076 1112.7616,638.18886 1108.9970,643.29966 C 1103.9628,626.52686 1106.2354,608.44156 1113.0156,592.52496 C 1116.5861,584.02026 1119.0921,575.19306 1120.4032,566.04965 C 1101.5823,583.21906 1088.2997,606.62336 1083.6220,631.67466 C 1079.8303,654.84406 1087.9811,678.66486 1103.3524,696.07766 C 1122.6797,718.87906 1150.4691,731.69116 1177.4032,743.14336 C 1162.1411,721.67536 1140.8949,702.30426 1136.3829,675.18116 C 1133.2879,659.43176 1139.4896,643.62446 1149.8327,631.84926 C 1161.6720,615.58326 1169.0459,596.23396 1173.4263,576.70306 C 1179.1152,551.26679 1174.5549,523.76337 1160.6532,501.70590 C 1157.2228,499.19819 1151.0933,486.02141 1153.0907,498.23715 z "
           id="path3177"
           style="fill-rule:evenodd;stroke:none;stroke-width:2.1563108;stroke-linecap:butt;stroke-linejoin:miter;stroke-miterlimit:4.0000000;stroke-opacity:0.50381678" />
        <path
           d="M 1235.7933,505.48429 C 1233.9219,513.46455 1234.7679,522.25934 1231.2933,529.70304 C 1223.1522,535.92241 1219.6023,547.47907 1223.1721,557.28654 C 1224.2805,565.50647 1226.8515,566.92459 1231.4092,559.41846 C 1241.1411,549.40420 1250.2467,535.05585 1244.7054,520.70671 C 1242.2051,513.38789 1240.0158,505.95768 1237.2308,498.73429 C 1236.7516,500.98429 1236.2725,503.23429 1235.7933,505.48429 z "
           id="path3179"
           style="fill-rule:evenodd;stroke:none;stroke-width:2.1563108;stroke-linecap:butt;stroke-linejoin:miter;stroke-miterlimit:4.0000000;stroke-opacity:0.50381678" />
        <path
           d="M 1176.4027,453.58435 C 1161.4100,473.26955 1155.0515,498.40862 1156.9628,522.92123 C 1158.3911,534.90814 1152.0181,546.06771 1147.4812,556.77569 C 1139.1385,572.73756 1131.5917,590.16956 1133.8729,608.61196 C 1133.2149,619.23866 1128.4937,608.52436 1128.9909,603.17946 C 1126.7299,588.14416 1125.7629,572.55236 1128.8470,557.65808 C 1127.2925,543.16445 1123.6211,527.45333 1111.6527,517.92810 C 1115.2067,535.13213 1119.8248,554.52230 1111.2465,570.95936 C 1108.1687,576.46606 1101.2841,577.97176 1099.8452,584.58426 C 1085.4025,609.88476 1084.3143,641.42766 1095.2794,668.21256 C 1097.5613,674.31316 1100.5378,680.13686 1103.1215,686.11556 C 1095.0742,681.52066 1086.2430,678.40236 1078.4652,673.36556 C 1089.2389,704.91196 1109.7248,735.94646 1142.0642,748.22336 C 1154.7817,753.63756 1168.6503,754.64246 1182.0866,756.77976 C 1211.5371,765.97366 1248.0839,759.93266 1267.5140,734.30476 C 1278.9301,719.47786 1282.1015,699.46846 1278.2152,681.39686 C 1273.0727,691.79756 1264.1615,700.22686 1252.6527,702.89686 C 1255.3007,689.54376 1251.2692,676.18146 1244.3706,664.76006 C 1236.9234,652.57316 1235.1724,637.16766 1241.1156,624.00066 C 1250.1331,604.23586 1256.9488,580.31806 1246.4470,559.74750 C 1243.1971,550.25136 1240.9092,556.08065 1239.2627,562.80672 C 1232.3964,583.92806 1218.5314,601.89556 1202.8402,617.30306 C 1203.9268,595.75526 1211.4448,575.36766 1214.6398,554.18573 C 1216.4641,543.39499 1214.3684,532.56674 1212.1093,522.11700 C 1210.5714,510.37486 1198.3337,504.35147 1193.1704,494.29627 C 1183.9691,480.92277 1180.9087,464.30088 1180.3715,448.33435 C 1179.0485,450.08435 1177.7256,451.83435 1176.4027,453.58435 z "
           id="path3181"
           style="fill-rule:evenodd;stroke:none;stroke-width:2.1563108;stroke-linecap:butt;stroke-linejoin:miter;stroke-miterlimit:4.0000000;stroke-opacity:0.50381678" />
        <path
           d="M 1268.4499,674.18266 C 1284.3324,658.87766 1281.1559,652.23586 1279.7121,641.26256 C 1275.0917,636.06466 1280.8671,629.13406 1286.6426,610.07506 C 1271.9152,627.11266 1254.5888,629.42286 1268.4499,674.18266 z "
           id="path3183"
           style="fill-rule:evenodd;stroke:#ffff00;stroke-width:2.1563108;stroke-linecap:butt;stroke-linejoin:miter;stroke-miterlimit:4.0000000;stroke-opacity:0.50381678" />
        <path
           d="M 1193.9465,747.81976 C 1211.8504,737.71266 1216.7595,705.94766 1219.0697,670.71736 C 1223.4013,636.64216 1232.0645,602.56696 1289.2416,597.08026 C 1265.8509,615.85056 1246.7919,638.95236 1255.4551,681.97956 C 1253.1449,744.64326 1206.6525,742.33306 1193.9465,747.81976 z "
           id="path3185"
           style="fill-rule:evenodd;stroke:#ffff00;stroke-width:2.1563108;stroke-linecap:butt;stroke-linejoin:miter;stroke-miterlimit:4.0000000;stroke-opacity:0.50381678" />
        <path
           d="M 1282.6532,592.10236 C 1258.2720,595.55926 1233.1409,610.20696 1225.9850,635.08556 C 1214.5013,666.18256 1220.8470,701.57586 1205.1845,731.44616 C 1199.2363,734.03116 1200.6905,745.12046 1208.0363,742.95076 C 1229.5527,739.04956 1249.9739,724.10176 1255.4252,702.16466 C 1260.6827,686.93096 1257.7015,670.81486 1257.1422,655.16736 C 1257.8576,632.47396 1270.9973,612.00956 1288.2470,598.00866 C 1291.2665,593.65966 1286.2304,592.19676 1282.6532,592.10236 z "
           id="path3187"
           style="fill-rule:evenodd;stroke:none;stroke-width:2.1563108;stroke-linecap:butt;stroke-linejoin:miter;stroke-miterlimit:4.0000000;stroke-opacity:0.50381678" />
        <path
           d="M 1282.9496,603.98376 C 1273.1246,614.38386 1258.8710,624.11686 1259.2149,640.10726 C 1258.4887,651.56376 1262.5684,662.48686 1265.1058,673.48376 C 1273.6345,665.34526 1283.3289,654.74376 1280.2048,641.90916 C 1280.1826,636.25376 1275.9202,631.30666 1279.2664,625.79636 C 1282.4803,617.07076 1285.8423,608.38826 1288.0746,599.32756 C 1286.3662,600.87966 1284.6579,602.43176 1282.9496,603.98376 z "
           id="path3189"
           style="fill-rule:evenodd;stroke:none;stroke-width:2.1563108;stroke-linecap:butt;stroke-linejoin:miter;stroke-miterlimit:4.0000000;stroke-opacity:0.50381678" />
        <path
           d="M 1162.7590,724.42916 C 1160.4488,696.70696 1157.2723,676.78156 1192.2139,651.65836 C 1251.4123,610.36386 1222.2462,586.39566 1185.2833,543.36851 C 1196.2567,586.10686 1178.6415,620.18206 1163.6253,642.99516 C 1153.8071,657.14506 1119.7319,686.02236 1162.7590,724.42916 z "
           id="path3191"
           style="fill-rule:evenodd;stroke:#ffff00;stroke-width:2.1563108;stroke-linecap:butt;stroke-linejoin:miter;stroke-miterlimit:4.0000000;stroke-opacity:0.50381678" />
        <path
           d="M 1140.1775,521.07910 C 1156.1660,502.66865 1152.0597,495.09060 1149.4483,482.41486 C 1143.8934,476.57140 1149.5796,468.29248 1154.1300,445.93836 C 1139.5708,466.31235 1120.7816,469.70121 1140.1775,521.07910 z "
           id="path3193"
           style="fill-rule:evenodd;stroke:#ffff00;stroke-width:2.1563108;stroke-linecap:butt;stroke-linejoin:miter;stroke-miterlimit:4.0000000;stroke-opacity:0.50381678" />
        <path
           d="M 1150.2933,442.01554 C 1140.9836,454.18977 1126.8658,465.42353 1127.6058,482.29679 C 1127.5055,496.32615 1133.0349,509.41522 1137.1683,522.57804 C 1145.6086,512.94334 1154.5884,500.70820 1150.8319,487.13190 C 1150.8576,481.76034 1147.0949,477.59003 1146.9864,472.51670 C 1149.0433,460.54136 1153.2991,448.97363 1154.9808,436.89054 C 1153.4183,438.59887 1151.8558,440.30721 1150.2933,442.01554 z "
           id="path3195"
           style="fill-rule:evenodd;stroke:none;stroke-width:2.1563108;stroke-linecap:butt;stroke-linejoin:miter;stroke-miterlimit:4.0000000;stroke-opacity:0.50381678" />
        <path
           d="M 1184.3925,536.20541 C 1190.7976,565.34077 1184.2008,596.03386 1169.4569,621.63016 C 1160.3032,639.22746 1142.2559,652.70446 1140.5362,673.64116 C 1137.7777,691.88566 1150.9235,707.09256 1163.1052,718.88216 C 1168.0670,725.12116 1163.8141,710.37166 1164.4894,706.91896 C 1162.5097,688.97026 1165.5882,668.83116 1180.0719,656.51916 C 1196.1971,640.83176 1219.1955,629.95726 1226.9194,607.40986 C 1232.1437,587.49696 1218.2227,569.64802 1206.0807,555.50807 C 1198.7581,546.62274 1191.0377,538.10193 1183.3612,529.51791 C 1183.7050,531.74708 1184.0487,533.97624 1184.3925,536.20541 z "
           id="path3197"
           style="fill-rule:evenodd;stroke:none;stroke-width:2.1563108;stroke-linecap:butt;stroke-linejoin:miter;stroke-miterlimit:4.0000000;stroke-opacity:0.50381678" />
      </g>
      <g
         id="g2353"
         transform="matrix(2.570977,0.000000,0.000000,2.246948,-2512.198,-661.9574)"
         style="opacity:0.89573460">
        <path
           d="M 1074.3945,665.51946 C 1093.7423,722.69646 1124.3522,753.01766 1179.2191,756.48296 C 1239.5726,775.83066 1295.5946,736.26886 1279.7121,674.18266 C 1272.4927,687.46616 1267.8724,694.68556 1255.4551,698.43956 C 1260.3643,664.07556 1228.8880,658.30016 1244.1930,621.33716 C 1254.8776,598.52416 1261.2306,570.51316 1242.4604,547.70011 C 1234.6635,573.68966 1225.1340,591.01606 1206.0750,610.07506 C 1208.0964,578.31006 1224.8452,552.60924 1214.7381,522.57686 C 1216.1820,502.36275 1182.9731,502.94030 1182.6843,441.14289 C 1161.6039,467.71001 1152.6520,488.21288 1155.8285,528.64109 C 1148.0316,561.27242 1128.9726,573.11216 1132.4379,608.34246 C 1129.5501,588.70586 1127.5287,571.66826 1131.5715,557.22961 C 1129.2614,539.32570 1126.9512,524.02072 1109.0473,511.31471 C 1114.5340,533.55023 1120.8870,567.04789 1102.1167,575.42226 C 1096.9188,586.10686 1070.9292,622.78106 1099.5177,680.24686 C 1091.1433,675.33776 1082.7689,673.89386 1074.3945,665.51946 z "
           id="path15991"
           style="stroke-opacity:0.50381678;stroke-miterlimit:4.0000000;stroke-linejoin:miter;stroke-linecap:butt;stroke-width:2.1563108;stroke:#ffff00;fill-rule:evenodd;fill-opacity:1.0000000;fill:url(#linearGradient2369)" />
        <path
           d="M 1173.1548,747.81976 C 1127.2399,699.30586 1119.4431,665.51946 1149.7642,633.46566 C 1183.8394,572.82336 1175.4650,534.70532 1150.6306,498.31994 C 1174.0212,578.88756 1122.9083,630.86666 1106.4483,654.25726 C 1096.6300,623.93616 1105.0044,610.94136 1118.5768,573.68966 C 1092.0096,602.56696 1075.8384,637.50846 1085.6566,670.71736 C 1103.5606,720.67506 1145.7214,731.64846 1173.1548,747.81976 z "
           id="path15990"
           style="stroke-opacity:0.50381678;stroke-miterlimit:4.0000000;stroke-linejoin:miter;stroke-linecap:butt;stroke-width:2.1563108;stroke:#ffff00;fill-rule:evenodd;fill-opacity:1.0000000;fill:url(#linearGradient2371)" />
        <path
           d="M 1228.8770,564.52175 C 1222.7222,546.62077 1227.7447,542.78716 1233.1362,534.96672 C 1238.6978,532.80059 1236.9932,525.24806 1240.0280,508.42827 C 1244.6232,527.20176 1256.9594,535.73776 1228.8770,564.52175 z "
           id="path15994"
           style="stroke-opacity:0.50381678;stroke-miterlimit:4.0000000;stroke-linejoin:miter;stroke-linecap:butt;stroke-width:2.1563108;stroke:#ffff00;fill-rule:evenodd;fill-opacity:1.0000000;fill:#ffd700" />
        <path
           d="M 1153.0907,498.23715 C 1153.7246,512.01490 1157.6418,525.65832 1155.8480,539.56546 C 1154.2657,572.03236 1140.0002,602.56416 1120.3061,627.97956 C 1116.6527,633.17076 1112.7616,638.18886 1108.9970,643.29966 C 1103.9628,626.52686 1106.2354,608.44156 1113.0156,592.52496 C 1116.5861,584.02026 1119.0921,575.19306 1120.4032,566.04965 C 1101.5823,583.21906 1088.2997,606.62336 1083.6220,631.67466 C 1079.8303,654.84406 1087.9811,678.66486 1103.3524,696.07766 C 1122.6797,718.87906 1150.4691,731.69116 1177.4032,743.14336 C 1162.1411,721.67536 1140.8949,702.30426 1136.3829,675.18116 C 1133.2879,659.43176 1139.4896,643.62446 1149.8327,631.84926 C 1161.6720,615.58326 1169.0459,596.23396 1173.4263,576.70306 C 1179.1152,551.26679 1174.5549,523.76337 1160.6532,501.70590 C 1157.2228,499.19819 1151.0933,486.02141 1153.0907,498.23715 z "
           id="path26054"
           style="stroke-opacity:0.50381678;stroke-miterlimit:4.0000000;stroke-linejoin:miter;stroke-linecap:butt;stroke-width:2.1563108;stroke:none;fill-rule:evenodd;fill-opacity:1.0000000;fill:url(#linearGradient2373)" />
        <path
           d="M 1235.7933,505.48429 C 1233.9219,513.46455 1234.7679,522.25934 1231.2933,529.70304 C 1223.1522,535.92241 1219.6023,547.47907 1223.1721,557.28654 C 1224.2805,565.50647 1226.8515,566.92459 1231.4092,559.41846 C 1241.1411,549.40420 1250.2467,535.05585 1244.7054,520.70671 C 1242.2051,513.38789 1240.0158,505.95768 1237.2308,498.73429 C 1236.7516,500.98429 1236.2725,503.23429 1235.7933,505.48429 z "
           id="path28563"
           style="stroke-opacity:0.50381678;stroke-miterlimit:4.0000000;stroke-linejoin:miter;stroke-linecap:butt;stroke-width:2.1563108;stroke:none;fill-rule:evenodd;fill-opacity:1.0000000;fill:url(#linearGradient2375)" />
        <path
           d="M 1176.4027,453.58435 C 1161.4100,473.26955 1155.0515,498.40862 1156.9628,522.92123 C 1158.3911,534.90814 1152.0181,546.06771 1147.4812,556.77569 C 1139.1385,572.73756 1131.5917,590.16956 1133.8729,608.61196 C 1133.2149,619.23866 1128.4937,608.52436 1128.9909,603.17946 C 1126.7299,588.14416 1125.7629,572.55236 1128.8470,557.65808 C 1127.2925,543.16445 1123.6211,527.45333 1111.6527,517.92810 C 1115.2067,535.13213 1119.8248,554.52230 1111.2465,570.95936 C 1108.1687,576.46606 1101.2841,577.97176 1099.8452,584.58426 C 1085.4025,609.88476 1084.3143,641.42766 1095.2794,668.21256 C 1097.5613,674.31316 1100.5378,680.13686 1103.1215,686.11556 C 1095.0742,681.52066 1086.2430,678.40236 1078.4652,673.36556 C 1089.2389,704.91196 1109.7248,735.94646 1142.0642,748.22336 C 1154.7817,753.63756 1168.6503,754.64246 1182.0866,756.77976 C 1211.5371,765.97366 1248.0839,759.93266 1267.5140,734.30476 C 1278.9301,719.47786 1282.1015,699.46846 1278.2152,681.39686 C 1273.0727,691.79756 1264.1615,700.22686 1252.6527,702.89686 C 1255.3007,689.54376 1251.2692,676.18146 1244.3706,664.76006 C 1236.9234,652.57316 1235.1724,637.16766 1241.1156,624.00066 C 1250.1331,604.23586 1256.9488,580.31806 1246.4470,559.74750 C 1243.1971,550.25136 1240.9092,556.08065 1239.2627,562.80672 C 1232.3964,583.92806 1218.5314,601.89556 1202.8402,617.30306 C 1203.9268,595.75526 1211.4448,575.36766 1214.6398,554.18573 C 1216.4641,543.39499 1214.3684,532.56674 1212.1093,522.11700 C 1210.5714,510.37486 1198.3337,504.35147 1193.1704,494.29627 C 1183.9691,480.92277 1180.9087,464.30088 1180.3715,448.33435 C 1179.0485,450.08435 1177.7256,451.83435 1176.4027,453.58435 z "
           id="path29198"
           style="stroke-opacity:0.50381678;stroke-miterlimit:4.0000000;stroke-linejoin:miter;stroke-linecap:butt;stroke-width:2.1563108;stroke:none;fill-rule:evenodd;fill-opacity:1.0000000;fill:url(#linearGradient2377)" />
        <path
           d="M 1268.4499,674.18266 C 1284.3324,658.87766 1281.1559,652.23586 1279.7121,641.26256 C 1275.0917,636.06466 1280.8671,629.13406 1286.6426,610.07506 C 1271.9152,627.11266 1254.5888,629.42286 1268.4499,674.18266 z "
           id="path15993"
           style="stroke-opacity:0.50381678;stroke-miterlimit:4.0000000;stroke-linejoin:miter;stroke-linecap:butt;stroke-width:2.1563108;stroke:#ffff00;fill-rule:evenodd;fill-opacity:1.0000000;fill:#ffd700" />
        <path
           d="M 1193.9465,747.81976 C 1211.8504,737.71266 1216.7595,705.94766 1219.0697,670.71736 C 1223.4013,636.64216 1232.0645,602.56696 1289.2416,597.08026 C 1265.8509,615.85056 1246.7919,638.95236 1255.4551,681.97956 C 1253.1449,744.64326 1206.6525,742.33306 1193.9465,747.81976 z "
           id="path15992"
           style="stroke-opacity:0.50381678;stroke-miterlimit:4.0000000;stroke-linejoin:miter;stroke-linecap:butt;stroke-width:2.1563108;stroke:#ffff00;fill-rule:evenodd;fill-opacity:1.0000000;fill:url(#linearGradient2379)" />
        <path
           d="M 1282.6532,592.10236 C 1258.2720,595.55926 1233.1409,610.20696 1225.9850,635.08556 C 1214.5013,666.18256 1220.8470,701.57586 1205.1845,731.44616 C 1199.2363,734.03116 1200.6905,745.12046 1208.0363,742.95076 C 1229.5527,739.04956 1249.9739,724.10176 1255.4252,702.16466 C 1260.6827,686.93096 1257.7015,670.81486 1257.1422,655.16736 C 1257.8576,632.47396 1270.9973,612.00956 1288.2470,598.00866 C 1291.2665,593.65966 1286.2304,592.19676 1282.6532,592.10236 z "
           id="path26056"
           style="stroke-opacity:0.50381678;stroke-miterlimit:4.0000000;stroke-linejoin:miter;stroke-linecap:butt;stroke-width:2.1563108;stroke:none;fill-rule:evenodd;fill-opacity:1.0000000;fill:url(#linearGradient2381)" />
        <path
           d="M 1282.9496,603.98376 C 1273.1246,614.38386 1258.8710,624.11686 1259.2149,640.10726 C 1258.4887,651.56376 1262.5684,662.48686 1265.1058,673.48376 C 1273.6345,665.34526 1283.3289,654.74376 1280.2048,641.90916 C 1280.1826,636.25376 1275.9202,631.30666 1279.2664,625.79636 C 1282.4803,617.07076 1285.8423,608.38826 1288.0746,599.32756 C 1286.3662,600.87966 1284.6579,602.43176 1282.9496,603.98376 z "
           id="path28562"
           style="stroke-opacity:0.50381678;stroke-miterlimit:4.0000000;stroke-linejoin:miter;stroke-linecap:butt;stroke-width:2.1563108;stroke:none;fill-rule:evenodd;fill-opacity:1.0000000;fill:url(#linearGradient2383)" />
        <path
           d="M 1162.7590,724.42916 C 1160.4488,696.70696 1157.2723,676.78156 1192.2139,651.65836 C 1251.4123,610.36386 1222.2462,586.39566 1185.2833,543.36851 C 1196.2567,586.10686 1178.6415,620.18206 1163.6253,642.99516 C 1153.8071,657.14506 1119.7319,686.02236 1162.7590,724.42916 z "
           id="path15989"
           style="stroke-opacity:0.50381678;stroke-miterlimit:4.0000000;stroke-linejoin:miter;stroke-linecap:butt;stroke-width:2.1563108;stroke:#ffff00;fill-rule:evenodd;fill-opacity:1.0000000;fill:url(#linearGradient2385)" />
        <path
           d="M 1140.1775,521.07910 C 1156.1660,502.66865 1152.0597,495.09060 1149.4483,482.41486 C 1143.8934,476.57140 1149.5796,468.29248 1154.1300,445.93836 C 1139.5708,466.31235 1120.7816,469.70121 1140.1775,521.07910 z "
           id="path15995"
           style="stroke-opacity:0.50381678;stroke-miterlimit:4.0000000;stroke-linejoin:miter;stroke-linecap:butt;stroke-width:2.1563108;stroke:#ffff00;fill-rule:evenodd;fill-opacity:1.0000000;fill:#ffd700" />
        <path
           d="M 1150.2933,442.01554 C 1140.9836,454.18977 1126.8658,465.42353 1127.6058,482.29679 C 1127.5055,496.32615 1133.0349,509.41522 1137.1683,522.57804 C 1145.6086,512.94334 1154.5884,500.70820 1150.8319,487.13190 C 1150.8576,481.76034 1147.0949,477.59003 1146.9864,472.51670 C 1149.0433,460.54136 1153.2991,448.97363 1154.9808,436.89054 C 1153.4183,438.59887 1151.8558,440.30721 1150.2933,442.01554 z "
           id="path28564"
           style="stroke-opacity:0.50381678;stroke-miterlimit:4.0000000;stroke-linejoin:miter;stroke-linecap:butt;stroke-width:2.1563108;stroke:none;fill-rule:evenodd;fill-opacity:1.0000000;fill:url(#linearGradient2387)" />
        <path
           d="M 1184.3925,536.20541 C 1190.7976,565.34077 1184.2008,596.03386 1169.4569,621.63016 C 1160.3032,639.22746 1142.2559,652.70446 1140.5362,673.64116 C 1137.7777,691.88566 1150.9235,707.09256 1163.1052,718.88216 C 1168.0670,725.12116 1163.8141,710.37166 1164.4894,706.91896 C 1162.5097,688.97026 1165.5882,668.83116 1180.0719,656.51916 C 1196.1971,640.83176 1219.1955,629.95726 1226.9194,607.40986 C 1232.1437,587.49696 1218.2227,569.64802 1206.0807,555.50807 C 1198.7581,546.62274 1191.0377,538.10193 1183.3612,529.51791 C 1183.7050,531.74708 1184.0487,533.97624 1184.3925,536.20541 z "
           id="path26055"
           style="stroke-opacity:0.50381678;stroke-miterlimit:4.0000000;stroke-linejoin:miter;stroke-linecap:butt;stroke-width:2.1563108;stroke:none;fill-rule:evenodd;fill-opacity:1.0000000;fill:url(#linearGradient2389)" />
      </g>
      <g
         id="g2166">
        <path
           style="font-size:200.00000px;font-style:normal;font-variant:normal;font-weight:normal;font-stretch:normal;writing-mode:lr-tb;text-anchor:start;fill:url(#linearGradient2164);fill-opacity:1.0000000;stroke:none;stroke-width:1.0000000pt;stroke-linecap:butt;stroke-linejoin:miter;stroke-opacity:1.0000000;font-family:Berliner"
           d="M 325.16869,652.33012 C 308.59590,664.13657 292.79181,663.96303 277.75636,651.80949 C 273.40110,648.28916 267.92043,640.85875 261.31434,629.51824 C 254.70802,618.17777 248.76073,610.37018 243.47246,606.09545 C 235.28056,599.47391 226.34134,596.53430 216.65478,597.27660 C 207.05189,597.91531 199.02350,602.22685 192.56960,610.21122 C 183.34963,621.61756 183.36660,634.74681 192.62051,649.59900 C 198.01084,658.41372 206.35734,667.38912 217.66002,676.52525 C 250.63452,703.17919 272.02513,710.44009 281.83192,698.30798 C 284.51394,694.98974 285.75001,691.44559 285.54014,687.67553 C 285.32999,683.90540 283.66958,680.76308 280.55890,678.24858 C 276.92949,675.31495 271.22118,673.78682 263.43396,673.66421 C 251.46164,673.41630 244.02944,673.06640 241.13737,672.61452 C 231.48345,670.98315 222.56064,666.85669 214.36891,660.23511 C 207.00659,654.28407 202.49330,647.03554 200.82900,638.48952 C 199.24842,629.83983 201.22413,622.09309 206.75615,615.24927 C 210.94696,610.06463 216.29965,607.79068 222.81424,608.42743 C 227.99622,609.01588 232.81666,611.11216 237.27558,614.71628 C 241.21585,617.90138 244.97216,622.48068 248.54454,628.45420 L 246.53292,630.94285 C 242.19494,624.00759 238.52244,619.32459 235.51541,616.89385 C 231.78235,613.87645 227.79361,612.02384 223.54919,611.33601 C 218.13979,610.39249 213.84260,611.89089 210.65760,615.83122 C 208.81355,618.11251 207.87299,620.86686 207.83593,624.09428 C 207.79874,627.32175 208.92081,629.85746 211.20213,631.70142 C 212.96486,633.12634 217.55025,634.34685 224.95834,635.36296 C 235.25843,636.83100 242.50873,638.14827 246.70927,639.31476 C 255.77627,641.67198 263.26509,645.23938 269.17575,650.01697 C 277.57481,656.80619 283.45038,664.38436 286.80247,672.75150 C 291.37010,683.64438 290.09174,693.49781 282.96739,702.31182 C 272.32243,715.48086 258.50886,721.11669 241.52664,719.21933 C 227.62390,717.75386 214.55466,712.07593 202.31887,702.18552 C 186.97215,689.78048 177.81983,675.43897 174.86187,659.16095 C 171.76472,641.57034 176.62820,624.84247 189.45232,608.97730 C 200.09710,595.80825 213.68987,588.53667 230.23069,587.16252 C 246.77134,585.78851 261.41886,590.25624 274.17331,600.56574 C 281.43174,606.43302 288.32783,616.03621 294.86162,629.37536 C 301.39510,642.71455 305.54332,650.09658 307.30627,651.52148 C 311.35016,654.79036 316.47475,654.38937 322.68004,650.31850 L 325.16869,652.33012 M 396.78144,747.77776 C 391.60298,760.20900 388.63439,766.98876 387.87565,768.11706 C 386.32705,770.79410 382.69130,772.24059 376.96836,772.45654 C 373.42977,772.28249 369.82976,772.08282 366.16831,771.85756 C 358.61946,771.60183 353.56819,771.59204 351.01446,771.82821 C 344.41955,772.40316 339.03510,774.06007 334.86108,776.79895 C 326.96226,762.82019 319.18701,753.22605 311.53530,748.01653 C 313.47366,747.52403 316.28384,746.67249 319.96583,745.46189 L 338.50012,700.96784 C 339.98688,697.39852 338.76100,694.79351 334.82247,693.15280 C 332.97616,692.38380 329.18643,692.46620 323.45326,693.40002 L 304.68825,738.44794 C 303.91915,740.29417 305.45783,742.66838 309.30430,745.57058 C 309.22225,746.11418 309.10435,746.57060 308.95059,746.93985 C 305.56587,746.39657 301.11464,746.85340 295.59687,748.31033 C 289.65851,749.73652 284.96127,751.82414 281.50515,754.57319 C 281.58680,750.56292 280.20686,745.72715 277.36533,740.06589 C 274.64683,734.45589 271.81571,730.67667 268.87196,728.72822 C 269.12830,728.11283 269.33338,727.62050 269.48720,727.25124 C 270.76928,727.64088 272.11290,728.05614 273.51809,728.49702 C 275.46684,729.01992 277.38988,728.73769 279.28724,727.65032 L 297.20628,684.63326 C 291.72870,678.01845 290.29733,671.57243 292.91216,665.29520 C 295.06548,660.12585 299.42412,656.59723 305.98809,654.70935 C 311.90582,652.98581 317.14172,653.07250 321.69581,654.96942 L 331.11156,658.89161 C 330.44497,660.49176 330.28097,661.57895 330.61956,662.15320 C 329.98354,661.59949 328.37320,660.78426 325.78856,659.70750 C 318.40359,656.63135 314.07027,656.63176 312.78856,659.70872 C 312.17326,661.18578 314.04019,663.98560 318.38935,668.10819 C 323.49742,672.83599 326.26692,675.72290 326.69785,676.76895 C 327.52879,679.28176 327.63157,681.63559 327.00621,683.83046 C 325.86800,687.25626 325.29383,689.32811 325.28371,690.04601 L 359.19094,685.10437 C 361.34517,690.33498 363.64329,697.64758 366.08531,707.04218 L 400.10025,702.36207 C 399.89503,702.85443 400.09510,703.58775 400.70046,704.56201 C 402.44416,707.31060 403.82911,710.92072 404.85532,715.39239 C 405.92231,720.45898 405.97908,724.31025 405.02564,726.94622 C 404.19497,729.63349 401.44691,736.57733 396.78144,747.77776 M 359.07550,766.51976 L 379.37862,717.77940 C 379.94247,716.42552 379.75259,714.97426 378.80898,713.42560 C 377.91640,711.75392 376.85476,710.66171 375.62406,710.14898 C 373.77772,709.37995 370.03926,709.33928 364.40866,710.02695 L 346.18200,753.78251 C 349.13603,756.74632 353.43386,760.99207 359.07550,766.51976 M 474.84491,757.91861 C 472.72224,770.40619 470.52594,778.55334 468.25602,782.36010 C 465.91890,786.56122 462.17337,789.10284 457.01941,789.98497 C 452.89716,790.36626 448.70925,790.73638 444.45569,791.09533 C 435.41997,792.53489 429.16184,795.93426 425.68129,801.29346 C 416.29301,789.68950 405.14213,780.89659 392.22862,774.91470 C 394.73134,773.71718 397.34578,771.86240 400.07196,769.35035 L 408.65168,718.87433 C 422.06194,720.34236 430.60866,720.98363 434.29186,720.79813 C 444.87989,720.56924 454.44525,718.00251 462.98797,713.09793 C 470.81442,719.56767 475.32849,726.82674 476.53019,734.87518 C 477.23871,739.45878 476.67695,747.13992 474.84491,757.91861 M 442.33989,784.44677 L 450.18229,738.30854 C 450.71846,735.15384 448.90966,731.87099 444.75591,728.45996 C 441.08314,725.40133 438.11831,723.74779 435.86141,723.49934 L 427.68386,771.60929 C 434.41929,776.54106 439.30463,780.82022 442.33989,784.44677 M 561.79220,757.39720 C 561.87041,768.99698 561.78162,775.59772 561.52585,777.19945 C 560.89421,782.40386 558.78837,786.48483 555.20834,789.44237 C 551.22905,792.53598 544.24812,795.38316 534.26551,797.98392 C 531.87001,798.66678 528.74620,800.08789 524.89407,802.24727 C 521.04095,804.27333 518.12343,806.62640 516.14152,809.30651 C 504.19770,797.92020 492.41740,790.99956 480.80058,788.54457 L 480.78439,786.14462 C 481.31860,786.27437 481.85237,786.33744 482.38570,786.33382 C 484.11898,786.32214 485.84778,785.64379 487.57208,784.29877 C 489.29546,782.82046 490.15131,781.21465 490.13962,779.48133 L 489.72926,718.68271 C 489.71394,716.41619 488.28473,712.09241 485.44161,705.71135 C 482.59847,699.33051 480.17153,695.34680 478.16078,693.76022 C 478.29321,693.62611 478.62518,693.42386 479.15671,693.15349 C 479.82065,692.74911 480.28506,692.41264 480.54992,692.14406 C 483.91377,696.65490 486.94700,701.56787 489.64961,706.88298 C 489.78203,706.74885 490.76940,704.87548 492.61175,701.26286 C 494.05856,698.31980 495.77656,696.04149 497.76573,694.42792 C 500.15125,692.27855 504.80386,690.18043 511.72357,688.13356 C 518.64320,686.08693 524.10344,685.11673 528.10429,685.22294 L 539.10404,685.14869 L 539.12024,687.54864 C 537.91931,687.42353 536.71888,687.36496 535.51897,687.37294 C 530.05238,687.40996 525.59662,689.04007 522.15168,692.26327 C 518.70574,695.35338 516.99765,699.09832 517.02739,703.49812 L 517.22582,732.89745 L 547.11175,715.89534 C 552.35025,721.59354 555.30601,724.90699 555.97904,725.83572 C 559.47615,730.34563 561.30265,734.26672 561.45856,737.59901 C 561.61791,741.46475 561.72912,748.06414 561.79220,757.39720 M 534.42366,791.78271 L 534.07134,739.58390 C 534.05958,737.85068 533.31592,736.32233 531.84034,734.99885 C 530.36375,733.54219 528.89217,732.81878 527.42559,732.82860 C 524.09229,732.85117 520.76848,734.27364 517.45417,737.09600 L 517.74035,779.49504 C 522.02757,782.53286 527.58867,786.62875 534.42366,791.78271 M 645.28471,744.51038 C 647.35087,757.00743 647.93182,765.42541 647.02757,769.76434 C 646.18842,774.49798 643.47663,778.12221 638.89220,780.63704 C 635.11971,782.34194 631.28152,784.05769 627.37761,785.78429 C 619.30547,790.09209 614.49823,795.34664 612.95586,801.54796 C 600.29636,793.64045 586.88745,788.96514 572.72909,787.52203 C 574.70439,785.57373 576.57095,782.96768 578.32877,779.70387 L 569.97684,729.18966 C 583.13262,726.20372 591.42115,724.02245 594.84245,722.64584 C 604.77686,718.97623 612.98206,713.43015 619.45807,706.00759 C 628.96663,709.57101 635.60138,714.96091 639.36234,722.17732 C 641.52703,726.27922 643.50115,733.72356 645.28471,744.51038 M 623.20910,780.18933 L 615.57492,734.01618 C 615.05288,730.85912 612.27230,728.34570 607.23319,726.47592 C 602.76369,724.78239 599.42168,724.18624 597.20716,724.68745 L 605.16759,772.83380 C 613.14319,775.29917 619.15703,777.75101 623.20910,780.18933 M 728.88426,718.67909 C 732.56948,730.65843 734.39731,739.09387 734.36774,743.98544 C 734.35767,748.03407 732.39692,751.63652 728.48550,754.79282 C 727.96585,755.37120 724.66709,757.57178 718.58919,761.39457 C 710.75642,766.31525 706.11937,772.55454 704.67803,780.11246 C 691.15034,774.23011 677.06377,771.51894 662.41829,771.97895 C 662.42811,771.55745 662.39873,771.00849 662.33014,770.33207 C 663.56532,769.81259 664.79073,768.80786 666.00636,767.31786 C 667.34942,765.78871 667.82492,764.38692 667.43288,763.11250 L 653.55420,717.99907 C 657.13223,718.29340 660.76911,717.87205 664.46485,716.73502 C 673.00325,714.10834 676.64517,710.75594 675.39062,706.67781 C 675.43963,706.38381 675.23378,706.16814 674.77307,706.03079 C 665.79365,705.86380 659.04443,705.01062 654.52538,703.47127 C 647.83015,701.20658 643.56121,697.07937 641.71854,691.08964 C 639.71909,684.59035 640.78298,678.75281 644.91022,673.57698 C 648.42967,669.14638 653.18420,666.00970 659.17383,664.16692 C 662.10493,663.26533 664.34981,662.85372 665.90846,662.93209 L 666.67296,665.41715 C 665.91815,665.23098 664.13891,665.56910 661.33526,666.43149 C 654.19867,668.62711 651.15965,671.44528 652.21819,674.88602 C 653.19833,678.07211 656.55081,679.90050 662.27566,680.37120 C 665.48119,680.36166 668.68672,680.35202 671.89227,680.34226 C 679.51886,680.64662 687.10135,681.03420 694.63975,681.50499 C 704.77581,682.71134 712.54928,686.66717 717.96019,693.37248 C 721.28310,697.37230 724.92446,705.80783 728.88426,718.67909 M 711.97245,757.57113 L 698.03496,712.26654 C 697.13320,709.33552 694.22675,707.36991 689.31560,706.36969 C 684.53183,705.33045 681.01261,705.22735 678.75793,706.06039 L 693.10707,752.70310 C 699.83175,753.70336 706.12020,755.32603 711.97245,757.57113 M 745.99649,644.95088 C 747.17184,647.78349 746.59163,651.77751 744.25587,656.93296 C 742.04328,662.03752 739.95176,664.99856 737.98132,665.81609 C 736.50351,666.42941 732.86974,664.97794 727.07999,661.46167 C 724.21071,659.76526 722.23948,657.62391 721.16632,655.03762 C 719.83770,651.83578 720.24238,648.63637 722.38037,645.43938 C 724.25116,642.64224 726.66436,640.63039 729.61998,639.40382 C 732.69880,638.12640 735.87853,637.96183 739.15918,638.91009 C 742.43985,639.85861 744.71896,641.87220 745.99649,644.95088 M 788.07405,728.61257 C 789.92129,727.84608 791.78031,726.06419 793.65112,723.26689 C 793.80438,723.63638 794.28064,724.08836 795.07990,724.62283 L 777.96022,753.81318 C 774.94425,754.19852 770.87944,752.92590 765.76580,749.99532 C 760.65213,747.06477 757.58428,744.36797 756.56225,741.90492 L 736.55589,693.69096 C 736.24930,692.95212 735.51166,692.39206 734.34297,692.01079 C 733.24636,691.45541 732.32860,691.33099 731.58966,691.63753 C 729.98871,692.30192 728.57580,694.11524 727.35093,697.07748 L 725.18323,696.02816 L 741.50115,668.03663 C 753.07394,672.61777 762.54775,674.74959 769.92259,674.43210 C 770.05493,675.09904 768.81754,676.11775 766.21042,677.48820 C 763.60327,678.85883 762.40063,680.65707 762.60252,682.88293 L 781.03059,726.77149 C 782.52425,729.32756 784.87207,729.94125 788.07405,728.61257 M 888.42344,677.49697 L 874.40398,707.77195 C 871.19088,708.23953 867.00345,707.41028 861.84169,705.28420 C 856.73665,702.97840 853.47714,700.46489 852.06314,697.74365 L 828.27024,651.95656 C 826.91765,649.35376 824.64415,648.88231 821.44972,650.54219 C 819.79332,651.40300 817.45728,654.57029 814.44157,660.04408 L 836.66672,702.81419 C 836.97409,703.40579 838.02444,703.83669 839.81775,704.10687 C 842.03207,704.60910 843.38052,705.03535 843.86310,705.38560 C 841.55364,706.43545 839.24834,709.66190 836.94718,715.06496 C 834.64596,720.46808 833.82136,724.95361 834.47337,728.52157 C 830.02141,726.02666 824.80973,724.52757 818.83833,724.02430 C 812.86691,723.52106 808.37155,723.97878 805.35225,725.39746 C 805.15851,724.44632 805.85677,723.33217 807.44702,722.05501 C 809.56736,720.35217 810.77193,719.20032 811.06074,718.59944 C 811.98865,716.91519 810.75957,712.67040 807.37351,705.86506 C 810.63661,712.43378 808.51787,708.50104 801.01727,694.06683 C 794.80776,682.11729 790.82316,675.17222 789.06346,673.23161 C 787.42210,671.22966 785.06334,671.02789 781.98718,672.62631 C 779.62095,673.85598 778.36885,675.78385 778.23085,678.40991 C 777.87130,678.29630 777.39107,678.09507 776.79018,677.80619 C 776.30767,677.45596 775.88660,677.22399 775.52698,677.11026 L 788.83657,647.20416 C 791.40122,647.22390 793.96586,647.24355 796.53049,647.26311 C 799.93263,647.44870 803.01753,648.32496 805.78520,649.89188 C 807.95201,651.17017 810.46394,653.54625 813.32098,657.02013 L 831.96162,624.79457 C 840.31215,628.71971 849.34237,630.33817 859.05231,629.64996 C 859.24134,630.30311 858.24498,631.42190 856.06321,633.00634 C 853.88135,634.59099 853.04798,636.60178 853.56311,639.03871 C 854.01667,641.35753 855.07577,644.26317 856.74044,647.75563 C 857.91316,650.30177 859.38869,653.14127 861.16702,656.27415 C 863.24800,659.70066 864.16556,661.17725 863.91970,660.70392 C 870.00619,672.41696 873.93163,679.39277 875.69604,681.63136 C 877.03459,683.33998 879.06450,683.48724 881.78577,682.07313 C 883.67870,681.08951 885.37797,679.15467 886.88358,676.26862 C 887.06794,676.62363 887.58123,677.03307 888.42344,677.49697"
           id="text5446" />
        <path
           style="fill:none;fill-opacity:0.75000000;fill-rule:evenodd;stroke:none;stroke-width:1.0000000px;stroke-linecap:butt;stroke-linejoin:miter;stroke-opacity:1.0000000"
           d="M 134.57136,563.73118 C 134.57136,563.73118 417.99993,915.58832 943.42850,569.58832"
           id="path5463" />
      </g>
      <path
         id="text5468"
         d="M 330.30759,663.80272 C 313.73480,675.60917 297.93071,675.43563 282.89526,663.28209 C 278.54000,659.76176 273.05933,652.33135 266.45324,640.99084 C 259.84692,629.65037 253.89963,621.84278 248.61136,617.56805 C 240.41946,610.94651 231.48024,608.00690 221.79368,608.74920 C 212.19079,609.38791 204.16240,613.69945 197.70850,621.68382 C 188.48853,633.09016 188.50550,646.21941 197.75941,661.07160 C 203.14974,669.88632 211.49624,678.86172 222.79892,687.99785 C 255.77342,714.65179 277.16403,721.91269 286.97082,709.78058 C 289.65284,706.46234 290.88891,702.91819 290.67904,699.14813 C 290.46889,695.37800 288.80848,692.23568 285.69780,689.72118 C 282.06839,686.78755 276.36008,685.25942 268.57286,685.13681 C 256.60054,684.88890 249.16834,684.53900 246.27627,684.08712 C 236.62235,682.45575 227.69954,678.32929 219.50781,671.70771 C 212.14549,665.75667 207.63220,658.50814 205.96790,649.96212 C 204.38732,641.31243 206.36303,633.56569 211.89505,626.72187 C 216.08586,621.53723 221.43855,619.26328 227.95314,619.90003 C 233.13512,620.48848 237.95556,622.58476 242.41448,626.18888 C 246.35475,629.37398 250.11106,633.95328 253.68344,639.92680 L 251.67182,642.41545 C 247.33384,635.48019 243.66134,630.79719 240.65431,628.36645 C 236.92125,625.34905 232.93251,623.49644 228.68809,622.80861 C 223.27869,621.86509 218.98150,623.36349 215.79650,627.30382 C 213.95245,629.58511 213.01189,632.33946 212.97483,635.56688 C 212.93764,638.79435 214.05971,641.33006 216.34103,643.17402 C 218.10376,644.59894 222.68915,645.81945 230.09724,646.83556 C 240.39733,648.30360 247.64763,649.62087 251.84817,650.78736 C 260.91517,653.14458 268.40399,656.71198 274.31465,661.48957 C 282.71371,668.27879 288.58928,675.85696 291.94137,684.22410 C 296.50900,695.11698 295.23064,704.97041 288.10629,713.78442 C 277.46133,726.95346 263.64776,732.58929 246.66554,730.69193 C 232.76280,729.22646 219.69356,723.54853 207.45777,713.65812 C 192.11105,701.25308 182.95873,686.91157 180.00077,670.63355 C 176.90362,653.04294 181.76710,636.31507 194.59122,620.44990 C 205.23600,607.28085 218.82877,600.00927 235.36959,598.63512 C 251.91024,597.26111 266.55776,601.72884 279.31221,612.03834 C 286.57064,617.90562 293.46673,627.50881 300.00052,640.84796 C 306.53400,654.18715 310.68222,661.56918 312.44517,662.99408 C 316.48906,666.26296 321.61365,665.86197 327.81894,661.79110 L 330.30759,663.80272 M 401.92034,759.25036 C 396.74188,771.68160 393.77329,778.46136 393.01455,779.58966 C 391.46595,782.26670 387.83020,783.71319 382.10726,783.92914 C 378.56867,783.75509 374.96866,783.55542 371.30721,783.33016 C 363.75836,783.07443 358.70709,783.06464 356.15336,783.30081 C 349.55845,783.87576 344.17400,785.53267 339.99998,788.27155 C 332.10116,774.29279 324.32591,764.69865 316.67420,759.48913 C 318.61256,758.99663 321.42274,758.14509 325.10473,756.93449 L 343.63902,712.44044 C 345.12578,708.87112 343.89990,706.26611 339.96137,704.62540 C 338.11506,703.85640 334.32533,703.93880 328.59216,704.87262 L 309.82715,749.92054 C 309.05805,751.76677 310.59673,754.14098 314.44320,757.04318 C 314.36115,757.58678 314.24325,758.04320 314.08949,758.41245 C 310.70477,757.86917 306.25354,758.32600 300.73577,759.78293 C 294.79741,761.20912 290.10017,763.29674 286.64405,766.04579 C 286.72570,762.03552 285.34576,757.19975 282.50423,751.53849 C 279.78573,745.92849 276.95461,742.14927 274.01086,740.20082 C 274.26720,739.58543 274.47228,739.09310 274.62610,738.72384 C 275.90818,739.11348 277.25180,739.52874 278.65699,739.96962 C 280.60574,740.49252 282.52878,740.21029 284.42614,739.12292 L 302.34518,696.10586 C 296.86760,689.49105 295.43623,683.04503 298.05106,676.76780 C 300.20438,671.59845 304.56302,668.06983 311.12699,666.18195 C 317.04472,664.45841 322.28062,664.54510 326.83471,666.44202 L 336.25046,670.36421 C 335.58387,671.96436 335.41987,673.05155 335.75846,673.62580 C 335.12244,673.07209 333.51210,672.25686 330.92746,671.18010 C 323.54249,668.10395 319.20917,668.10436 317.92746,671.18132 C 317.31216,672.65838 319.17909,675.45820 323.52825,679.58079 C 328.63632,684.30859 331.40582,687.19550 331.83675,688.24155 C 332.66769,690.75436 332.77047,693.10819 332.14511,695.30306 C 331.00690,698.72886 330.43273,700.80071 330.42261,701.51861 L 364.32984,696.57697 C 366.48407,701.80758 368.78219,709.12018 371.22421,718.51478 L 405.23915,713.83467 C 405.03393,714.32703 405.23400,715.06035 405.83936,716.03461 C 407.58306,718.78320 408.96801,722.39332 409.99422,726.86499 C 411.06121,731.93158 411.11798,735.78285 410.16454,738.41882 C 409.33387,741.10609 406.58581,748.04993 401.92034,759.25036 M 364.21440,777.99236 L 384.51752,729.25200 C 385.08137,727.89812 384.89149,726.44686 383.94788,724.89820 C 383.05530,723.22652 381.99366,722.13431 380.76296,721.62158 C 378.91662,720.85255 375.17816,720.81188 369.54756,721.49955 L 351.32090,765.25511 C 354.27493,768.21892 358.57276,772.46467 364.21440,777.99236 M 479.98381,769.39121 C 477.86114,781.87879 475.66484,790.02594 473.39492,793.83270 C 471.05780,798.03382 467.31227,800.57544 462.15831,801.45757 C 458.03606,801.83886 453.84815,802.20898 449.59459,802.56793 C 440.55887,804.00749 434.30074,807.40686 430.82019,812.76606 C 421.43191,801.16210 410.28103,792.36919 397.36752,786.38730 C 399.87024,785.18978 402.48468,783.33500 405.21086,780.82295 L 413.79058,730.34693 C 427.20084,731.81496 435.74756,732.45623 439.43076,732.27073 C 450.01879,732.04184 459.58415,729.47511 468.12687,724.57053 C 475.95332,731.04027 480.46739,738.29934 481.66909,746.34778 C 482.37761,750.93138 481.81585,758.61252 479.98381,769.39121 M 447.47879,795.91937 L 455.32119,749.78114 C 455.85736,746.62644 454.04856,743.34359 449.89481,739.93256 C 446.22204,736.87393 443.25721,735.22039 441.00031,734.97194 L 432.82276,783.08189 C 439.55819,788.01366 444.44353,792.29282 447.47879,795.91937 M 566.93110,768.86980 C 567.00931,780.46958 566.92052,787.07032 566.66475,788.67205 C 566.03311,793.87646 563.92727,797.95743 560.34724,800.91497 C 556.36795,804.00858 549.38702,806.85576 539.40441,809.45652 C 537.00891,810.13938 533.88510,811.56049 530.03297,813.71987 C 526.17985,815.74593 523.26233,818.09900 521.28042,820.77911 C 509.33660,809.39280 497.55630,802.47216 485.93948,800.01717 L 485.92329,797.61722 C 486.45750,797.74697 486.99127,797.81004 487.52460,797.80642 C 489.25788,797.79474 490.98668,797.11639 492.71098,795.77137 C 494.43436,794.29306 495.29021,792.68725 495.27852,790.95393 L 494.86816,730.15531 C 494.85284,727.88879 493.42363,723.56501 490.58051,717.18395 C 487.73737,710.80311 485.31043,706.81940 483.29968,705.23282 C 483.43211,705.09871 483.76408,704.89646 484.29561,704.62609 C 484.95955,704.22171 485.42396,703.88524 485.68882,703.61666 C 489.05267,708.12750 492.08590,713.04047 494.78851,718.35558 C 494.92093,718.22145 495.90830,716.34808 497.75065,712.73546 C 499.19746,709.79240 500.91546,707.51409 502.90463,705.90052 C 505.29015,703.75115 509.94276,701.65303 516.86247,699.60616 C 523.78210,697.55953 529.24234,696.58933 533.24319,696.69554 L 544.24294,696.62129 L 544.25914,699.02124 C 543.05821,698.89613 541.85778,698.83756 540.65787,698.84554 C 535.19128,698.88256 530.73552,700.51267 527.29058,703.73587 C 523.84464,706.82598 522.13655,710.57092 522.16629,714.97072 L 522.36472,744.37005 L 552.25065,727.36794 C 557.48915,733.06614 560.44491,736.37959 561.11794,737.30832 C 564.61505,741.81823 566.44155,745.73932 566.59746,749.07161 C 566.75681,752.93735 566.86802,759.53674 566.93110,768.86980 M 539.56256,803.25531 L 539.21024,751.05650 C 539.19848,749.32328 538.45482,747.79493 536.97924,746.47145 C 535.50265,745.01479 534.03107,744.29138 532.56449,744.30120 C 529.23119,744.32377 525.90738,745.74624 522.59307,748.56860 L 522.87925,790.96764 C 527.16647,794.00546 532.72757,798.10135 539.56256,803.25531 M 650.42361,755.98298 C 652.48977,768.48003 653.07072,776.89801 652.16647,781.23694 C 651.32732,785.97058 648.61553,789.59481 644.03110,792.10964 C 640.25861,793.81454 636.42042,795.53029 632.51651,797.25689 C 624.44437,801.56469 619.63713,806.81924 618.09476,813.02056 C 605.43526,805.11305 592.02635,800.43774 577.86799,798.99463 C 579.84329,797.04633 581.70985,794.44028 583.46767,791.17647 L 575.11574,740.66226 C 588.27152,737.67632 596.56005,735.49505 599.98135,734.11844 C 609.91576,730.44883 618.12096,724.90275 624.59697,717.48019 C 634.10553,721.04361 640.74028,726.43351 644.50124,733.64992 C 646.66593,737.75182 648.64005,745.19616 650.42361,755.98298 M 628.34800,791.66193 L 620.71382,745.48878 C 620.19178,742.33172 617.41120,739.81830 612.37209,737.94852 C 607.90259,736.25499 604.56058,735.65884 602.34606,736.16005 L 610.30649,784.30640 C 618.28209,786.77177 624.29593,789.22361 628.34800,791.66193 M 734.02316,730.15169 C 737.70838,742.13103 739.53621,750.56647 739.50664,755.45804 C 739.49657,759.50667 737.53582,763.10912 733.62440,766.26542 C 733.10475,766.84380 729.80599,769.04438 723.72809,772.86717 C 715.89532,777.78785 711.25827,784.02714 709.81693,791.58506 C 696.28924,785.70271 682.20267,782.99154 667.55719,783.45155 C 667.56701,783.03005 667.53763,782.48109 667.46904,781.80467 C 668.70422,781.28519 669.92963,780.28046 671.14526,778.79046 C 672.48832,777.26131 672.96382,775.85952 672.57178,774.58510 L 658.69310,729.47167 C 662.27113,729.76600 665.90801,729.34465 669.60375,728.20762 C 678.14215,725.58094 681.78407,722.22854 680.52952,718.15041 C 680.57853,717.85641 680.37268,717.64074 679.91197,717.50339 C 670.93255,717.33640 664.18333,716.48322 659.66428,714.94387 C 652.96905,712.67918 648.70011,708.55197 646.85744,702.56224 C 644.85799,696.06295 645.92188,690.22541 650.04912,685.04958 C 653.56857,680.61898 658.32310,677.48230 664.31273,675.63952 C 667.24383,674.73793 669.48871,674.32632 671.04736,674.40469 L 671.81186,676.88975 C 671.05705,676.70358 669.27781,677.04170 666.47416,677.90409 C 659.33757,680.09971 656.29855,682.91788 657.35709,686.35862 C 658.33723,689.54471 661.68971,691.37310 667.41456,691.84380 C 670.62009,691.83426 673.82562,691.82462 677.03117,691.81486 C 684.65776,692.11922 692.24025,692.50680 699.77865,692.97759 C 709.91471,694.18394 717.68818,698.13977 723.09909,704.84508 C 726.42200,708.84490 730.06336,717.28043 734.02316,730.15169 M 717.11135,769.04373 L 703.17386,723.73914 C 702.27210,720.80812 699.36565,718.84251 694.45450,717.84229 C 689.67073,716.80305 686.15151,716.69995 683.89683,717.53299 L 698.24597,764.17570 C 704.97065,765.17596 711.25910,766.79863 717.11135,769.04373 M 751.13539,656.42348 C 752.31074,659.25609 751.73053,663.25011 749.39477,668.40556 C 747.18218,673.51012 745.09066,676.47116 743.12022,677.28869 C 741.64241,677.90201 738.00864,676.45054 732.21889,672.93427 C 729.34961,671.23786 727.37838,669.09651 726.30522,666.51022 C 724.97660,663.30838 725.38128,660.10897 727.51927,656.91198 C 729.39006,654.11484 731.80326,652.10299 734.75888,650.87642 C 737.83770,649.59900 741.01743,649.43443 744.29808,650.38269 C 747.57875,651.33121 749.85786,653.34480 751.13539,656.42348 M 793.21295,740.08517 C 795.06019,739.31868 796.91921,737.53679 798.79002,734.73949 C 798.94328,735.10898 799.41954,735.56096 800.21880,736.09543 L 783.09912,765.28578 C 780.08315,765.67112 776.01834,764.39850 770.90470,761.46792 C 765.79103,758.53737 762.72318,755.84057 761.70115,753.37752 L 741.69479,705.16356 C 741.38820,704.42472 740.65056,703.86466 739.48187,703.48339 C 738.38526,702.92801 737.46750,702.80359 736.72856,703.11013 C 735.12761,703.77452 733.71470,705.58784 732.48983,708.55008 L 730.32213,707.50076 L 746.64005,679.50923 C 758.21284,684.09037 767.68665,686.22219 775.06149,685.90470 C 775.19383,686.57164 773.95644,687.59035 771.34932,688.96080 C 768.74217,690.33143 767.53953,692.12967 767.74142,694.35553 L 786.16949,738.24409 C 787.66315,740.80016 790.01097,741.41385 793.21295,740.08517 M 893.56234,688.96957 L 879.54288,719.24455 C 876.32978,719.71213 872.14235,718.88288 866.98059,716.75680 C 861.87555,714.45100 858.61604,711.93749 857.20204,709.21625 L 833.40914,663.42916 C 832.05655,660.82636 829.78305,660.35491 826.58862,662.01479 C 824.93222,662.87560 822.59618,666.04289 819.58047,671.51668 L 841.80562,714.28679 C 842.11299,714.87839 843.16334,715.30929 844.95665,715.57947 C 847.17097,716.08170 848.51942,716.50795 849.00200,716.85820 C 846.69254,717.90805 844.38724,721.13450 842.08608,726.53756 C 839.78486,731.94068 838.96026,736.42621 839.61227,739.99417 C 835.16031,737.49926 829.94863,736.00017 823.97723,735.49690 C 818.00581,734.99366 813.51045,735.45138 810.49115,736.87006 C 810.29741,735.91892 810.99567,734.80477 812.58592,733.52761 C 814.70626,731.82477 815.91083,730.67292 816.19964,730.07204 C 817.12755,728.38779 815.89847,724.14300 812.51241,717.33766 C 815.77551,723.90638 813.65677,719.97364 806.15617,705.53943 C 799.94666,693.58989 795.96206,686.64482 794.20236,684.70421 C 792.56100,682.70226 790.20224,682.50049 787.12608,684.09891 C 784.75985,685.32858 783.50775,687.25645 783.36975,689.88251 C 783.01020,689.76890 782.52997,689.56767 781.92908,689.27879 C 781.44657,688.92856 781.02550,688.69659 780.66588,688.58286 L 793.97547,658.67676 C 796.54012,658.69650 799.10476,658.71615 801.66939,658.73571 C 805.07153,658.92130 808.15643,659.79756 810.92410,661.36448 C 813.09091,662.64277 815.60284,665.01885 818.45988,668.49273 L 837.10052,636.26717 C 845.45105,640.19231 854.48127,641.81077 864.19121,641.12256 C 864.38024,641.77571 863.38388,642.89450 861.20211,644.47894 C 859.02025,646.06359 858.18688,648.07438 858.70201,650.51131 C 859.15557,652.83013 860.21467,655.73577 861.87934,659.22823 C 863.05206,661.77437 864.52759,664.61387 866.30592,667.74675 C 868.38690,671.17326 869.30446,672.64985 869.05860,672.17652 C 875.14509,683.88956 879.07053,690.86537 880.83494,693.10396 C 882.17349,694.81258 884.20340,694.95984 886.92467,693.54573 C 888.81760,692.56211 890.51687,690.62727 892.02248,687.74122 C 892.20684,688.09623 892.72013,688.50567 893.56234,688.96957"
         style="font-size:200.00000px;font-style:normal;font-variant:normal;font-weight:normal;font-stretch:normal;line-height:100.00000%;writing-mode:lr-tb;text-anchor:start;opacity:0.21327014;fill:#000000;fill-opacity:1.0000000;stroke:none;stroke-width:1.0000000pt;stroke-linecap:butt;stroke-linejoin:miter;stroke-opacity:1.0000000;font-family:Berliner" />
    </g>
  </g>
</svg>
